HIERARCHY
ROOT hip
{
  OFFSET 0.0 0.0 0.0
  CHANNELS 6 Xposition Yposition Zposition Zrotation Yrotation Xrotation
  JOINT torso
  {
    OFFSET 0.0 0.0 0.0
    CHANNELS 3 Zrotation Xrotation Yrotation
    JOINT neck
    {
      OFFSET -8.600829999999974 327.7417449999999 60.895874000000276
      CHANNELS 3 Zrotation Xrotation Yrotation
      JOINT head
      {
        OFFSET 0.7211610000001087 266.848846 239.12060599999995
        CHANNELS 3 Zrotation Xrotation Yrotation
        End Site
        {
          OFFSET 0.0 0.0 0.0
        }
      }
    }
    JOINT left_collar
    {
      OFFSET -8.600829999999974 327.7417449999999 60.895874000000276
      CHANNELS 3 Zrotation Xrotation Yrotation
      JOINT left_upper_arm
      {
        OFFSET -122.29599000000002 -5.21875 31.800903999999946
        CHANNELS 3 Zrotation Xrotation Yrotation
        JOINT left_forearm
        {
          OFFSET -195.94708199999997 63.423126000000025 226.99352999999996
          CHANNELS 3 Zrotation Xrotation Yrotation
          JOINT left_hand
          {
            OFFSET -232.19226099999992 28.282164999999964 80.86950699999989
            CHANNELS 3 Zrotation Xrotation Yrotation
            End Site
            {
              OFFSET 0.0 0.0 0.0
            }
          }
        }
      }
    }
    JOINT right_collar
    {
      OFFSET -8.600829999999974 327.7417449999999 60.895874000000276
      CHANNELS 3 Zrotation Xrotation Yrotation
      JOINT right_upper_arm
      {
        OFFSET 168.41261300000002 -11.913361000000066 -9.389160000000174
        CHANNELS 3 Zrotation Xrotation Yrotation
        JOINT right_forearm
        {
          OFFSET 213.49279800000005 104.82293699999997 83.52258300000017
          CHANNELS 3 Zrotation Xrotation Yrotation
          JOINT right_hand
          {
            OFFSET 222.067185 62.005675999999994 -110.52026300000034
            CHANNELS 3 Zrotation Xrotation Yrotation
            End Site
            {
              OFFSET 0.0 0.0 0.0
            }
          }
        }
      }
    }
  }
}
MOTION
Frames: 17
Frame Time: 0.01
-155.73899725655122 156.0469339045642 1276.3088339385708 -0.2862970639751542 -3.168259091814311 -20.463296681961292 -0.7274839905194238 6.753714739144767 0.2726296523938868 -4.4786204164996395 -4.825525534601696 4.062422614755644 0.0 0.0 0.0 -0.13681516578702382 -0.044687303981850834 0.2202438102604332 28.24885017509369 39.29985570265871 -30.971384436916214 30.31612140704402 18.159868968676417 -38.11432887562287 0.0 0.0 0.0 -2.197673396946193 -0.40588205002687006 -3.1373012622728873 -42.24520512343511 13.787527720803318 14.504660661402832 -41.32397043375698 -13.913067907387648 36.836990947213565 0.0 0.0 0.0
-155.85397643541384 156.05434262095625 1275.127402231292 -0.2519409590820652 -3.211606693866151 -20.355312093404404 -0.7405919143376697 6.798291203698454 0.2752237202310512 -4.441125480715053 -4.809121048817918 4.028350230394983 0.0 0.0 0.0 -0.1876453535156839 -0.053212942752602674 0.10809702771376159 28.266428198745906 39.33342574796489 -30.982561998382113 30.301920491984177 18.148623686117404 -38.1132476418047 0.0 0.0 0.0 -2.1747207508304194 -0.41227292376404356 -3.2293926662025667 -42.30440065790454 13.816767974754079 14.4597249227787 -41.32269114008068 -13.916611632326733 36.80996349916279 0.0 0.0 0.0
-155.96746132702248 156.06296900669616 1273.934460795965 -0.21816362257982622 -3.2545477586468854 -20.24922918787103 -0.753305995773657 6.842254094938668 0.2777451675515025 -4.4045088048962 -4.7929828169661475 3.9950768724961376 0.0 0.0 0.0 -0.23814949871636915 -0.061824946762093456 -0.002378183739736208 28.283580284665877 39.366455055527595 -30.994088817578145 30.28721909411994 18.137021236680535 -38.11228662183008 0.0 0.0 0.0 -2.1519022651387596 -0.41848357919244816 -3.31975862904605 -42.36348614620836 13.845863410612466 14.415474943413628 -41.32139392185343 -13.920215927345497 36.78247405137803 0.0 0.0 0.0
-156.0783984300974 156.07306972429956 1272.72387531355 -0.18557218811758464 -3.2964216269420143 -20.146644060876262 -0.7654358914862626 6.884931453278683 0.28015681760025474 -4.369398891214413 -4.7772865269143026 3.9631725155636057 0.0 0.0 0.0 -0.28788671828490703 -0.07047148330824798 -0.10952117916340848 28.30012523278403 39.39864947532008 -31.005968779729987 30.272082644013782 18.125104183699293 -38.111413162774184 0.0 0.0 0.0 -2.1292042672127094 -0.4243677122833531 -3.4067697788879308 -42.42197582783768 13.87458374486879 14.372137806678953 -41.32035922546914 -13.923870649453143 36.75483564387644 0.0 0.0 0.0
-156.18569831929602 156.0849759803091 1271.4887822350036 -0.15474846867958242 -3.3365848122144706 -20.049047515802915 -0.7768125195135324 6.925680708873026 0.2824253042144156 -4.336363200404349 -4.76220598475287 3.9331518025161456 0.0 0.0 0.0 -0.33643612019505437 -0.07909644915105767 -0.2117951350433554 28.31592224905569 39.42974612853882 -31.018125030314053 30.256596523797295 18.112928164717307 -38.110584893653495 0.0 0.0 0.0 -2.106612220954572 -0.4297917609330508 -3.4889265314524027 -42.47941016214701 13.902711153958993 14.329961741703613 -41.319843001080656 -13.927561747926273 36.72737102645189 0.0 0.0 0.0
-156.28824927170794 156.09908327237343 1270.2218412970083 -0.12623357653350345 -3.3744287968204807 -19.957778797288753 -0.7872933093343265 6.963907938478449 0.2845220096355227 -4.305886894461949 -4.747910895061574 3.9054548201975794 0.0 0.0 0.0 -0.3834057341113853 -0.08764052873974959 -0.30783665049503145 28.330878693455094 39.45952134507278 -31.030389651481713 30.240867960070577 18.100563607560577 -38.109750714227005 0.0 0.0 0.0 -2.084113973214238 -0.4346396445215655 -3.564910314737915 -42.535364430477465 13.93004408264368 14.289216319805181 -41.320066164317815 -13.931270668366615 36.70040771476982 0.0 0.0 0.0
-156.38493457736035 156.11583311809932 1268.9154921417135 -0.10051532810315478 -3.409395412662038 -19.87398728218347 -0.7967659613541725 6.999083987686306 0.28642372401420313 -4.278356013463427 -4.73456403010641 3.8804318849674435 0.0 0.0 0.0 -0.428439483329825 -0.096042396608151 -0.3964945763236288 28.344955157527146 39.48779681476122 -31.04249929188921 30.225027076121545 18.088097036443624 -38.10885277598463 0.0 0.0 0.0 -2.0617027624091033 -0.43881655601175645 -3.633624847678297 -42.58945484020393 13.9563999438785 14.250191111763028 -41.321205822245176 -13.93497390538632 36.67427326863245 0.0 0.0 0.0
-156.47465356734318 156.13568663645026 1267.5622039109892 -0.07801878830094569 -3.440989280767784 -19.79860345270056 -0.8051506668820413 7.030756917264166 0.28811302640749126 -4.254045786804336 -4.722317725374845 3.858332968477414 0.0 0.0 0.0 -0.47122213771093263 -0.10424000554205651 -0.4768566108728087 28.358167625963855 39.514443794696646 -31.054097220199157 30.20922701646615 18.075631884271512 -38.10782939693144 0.0 0.0 0.0 -2.039379726888403 -0.4422516310041543 -3.6942256995887703 -42.64134197000091 13.981616663415018 14.21319237452082 -41.32338875891862 -13.938642750779891 36.649290930172 0.0 0.0 0.0
-156.5563461196634 156.15909033522348 1266.1547073966954 -0.05910004273246501 -3.4687870874313242 -19.732319742025524 -0.8124008691805095 7.058560613956248 0.2895784103044319 -4.233114377838163 -4.711309766960697 3.839302031805923 0.0 0.0 0.0 -0.5114824214131738 -0.1121719197987198 -0.5482632799212606 28.37058672252376 39.53938536089084 -31.064741708512024 30.193643127088727 18.063288756369356 -38.10661874728032 0.0 0.0 0.0 -2.0171556285820342 -0.44489939047286164 -3.7461371841935143 -42.69073160985818 14.00555312009574 14.178537318761402 -41.32668761425648 -13.942243280964245 36.62577574535384 0.0 0.0 0.0
-156.62902009182355 156.18643494682036 1264.6862005211497 -0.04404307615885058 -3.4924437175876917 -19.675581230504093 -0.8185027410244937 7.082219705629364 0.2908141919075409 -4.215602007289506 -4.701658851014519 3.8233762175009565 0.0 0.0 0.0 -0.5489945754483271 -0.1197786613102855 -0.6103098182004588 28.382334226962538 39.56259677930614 -31.0739201861734 30.178471219109866 18.051205106931842 -38.105163066029704 0.0 0.0 0.0 -1.9950515454096764 -0.44673992778743477 -3.789056418067535 -42.737373216069116 14.028088601168678 14.146545647411289 -41.33112004115036 -13.945736618830914 36.60403123547804 0.0 0.0 0.0
-156.6917807963388 156.2180086336411 1263.1505196285102 -0.033059486945539805 -3.511695440137582 -19.62858569189237 -0.8234736067518221 7.101551121812259 0.2918202460801158 -4.201435111781547 -4.693459877889402 3.810489588829263 0.0 0.0 0.0 -0.5835787054596469 -0.12700403707908742 -0.6628371458309499 28.393577176614606 39.58410411627156 -31.081068267844554 30.16392496255139 18.039534293902985 -38.10341312241558 0.0 0.0 0.0 -1.9730983815790384 -0.4477778833946978 -3.8229450685901214 -42.78105631935064 14.049121432830468 14.117528319366718 -41.336650904467774 -13.949079490638224 36.584346599550955 0.0 0.0 0.0
-156.74386129946822 156.2539463380485 1261.5422712882375 -0.026290672953716194 -3.526360453519636 -19.59129213317121 -0.8273595457111944 7.116462750369178 0.29260161384392624 -4.190434977466485 -4.6867793827574795 3.800480910853527 0.0 0.0 0.0 -0.6151002147590591 -0.1337964131723113 -0.7059135761530697 28.40451994979317 39.60398123740728 -31.085592543353073 30.15023246115204 18.0284439804022 -38.10133262728278 0.0 0.0 0.0 -1.9513351830270391 -0.44804031957583235 -3.848009921899811 -42.82160529547997 14.068566963627696 14.091773828433922 -41.3431973325292 -13.952225078019811 36.566994349599206 0.0 0.0 0.0
-156.78465201417458 156.29417746400364 1259.8569219302444 -0.023812071424274817 -3.5363371666523666 -19.56343672294271 -0.8302323889494166 7.126949679988494 0.2931680188692237 -4.182330143664578 -4.681651403048022 3.7931048375357315 0.0 0.0 0.0 -0.6434685653689382 -0.140109899304752 -0.7398091283441247 28.41539478638258 39.62234537268301 -31.08689588179976 30.137632064267983 18.018113863241656 -38.09890232861847 0.0 0.0 0.0 -1.9298064005418978 -0.44757366953794897 -3.864673913743732 -42.858872941510526 14.086355078812279 14.069532645280473 -41.35063618786463 -13.955124140547355 36.55222823214234 0.0 0.0 0.0
-156.81372782182137 156.33837443431509 1258.0908453628965 -0.02563901017192644 -3.5416006210821918 -19.544554846820706 -0.8321862804272785 7.133088510415121 0.2935333217611407 -4.176771786023337 -4.67807405319785 3.7880457924412467 0.0 0.0 0.0 -0.6686355431779353 -0.14590540819726755 -0.7649643998002945 28.42645124007423 39.6393514504198 -31.084403916692345 30.12636748906759 18.00873273687821 -38.0961235797345 0.0 0.0 0.0 -1.9085583890415656 -0.44643998557032427 -3.8735396772952733 -42.892733310769394 14.102427415287268 14.051000807270949 -41.35881331757569 -13.957726359865298 36.54028126583249 0.0 0.0 0.0
-156.8308708443459 156.38590495266402 1256.24133070375 -0.031733720081360786 -3.542197461797005 -19.53400794808637 -0.833333936145433 7.135030177408559 0.2937149329659625 -4.17335124715289 -4.676007030526074 3.78493379345796 0.0 0.0 0.0 -0.6905931336372247 -0.15115155379559841 -0.7819559333724693 28.43794507182131 39.65518541643923 -31.077591341844805 30.11668235652317 18.000494938615994 -38.093021221942465 0.0 0.0 0.0 -1.887635547051818 -0.4447127454808395 -3.8753479500358683 -42.92307425770321 14.116734436513546 14.036303901451198 -41.367553797334295 -13.959981836910076 36.531363716771935 0.0 0.0 0.0
-156.83608703487332 156.43579098594878 1254.3065552101218 -0.04201306478854125 -3.5382398427103463 -19.53101379421601 -0.8338027106138893 7.132991691712105 0.29373319953473137 -4.171618871121061 -4.675370223143698 3.7833614617085476 0.0 0.0 0.0 -0.7093710510238038 -0.15582535211922977 -0.791459935894396 28.450127086736398 39.67005676041037 -31.06600666679701 30.108814282661093 17.99359625791611 -38.08964565232682 0.0 0.0 0.0 -1.8670765672044838 -0.4424724903799835 -3.870933314894042 -42.949790136941736 14.129232520711243 14.025482798107813 -41.37667232387293 -13.961842662658114 36.525660840415114 0.0 0.0 0.0
-156.8296149659929 156.4866775332991 1252.2855278453958 -0.056356561253496334 -3.529898614847224 -19.53467884345688 -0.8337305738530327 7.127247142355362 0.29361077843383754 -4.171103308238771 -4.676043543366704 3.7829014639766556 0.0 0.0 0.0 -0.7250339226994782 -0.15991269087409407 -0.7942160945862542 28.46323240187376 39.68419048692282 -31.049294143533857 30.102988706271013 17.9882294232446 -38.08607394567666 0.0 0.0 0.0 -1.846911270407813 -0.43980255756000525 -3.86117971083532 -42.97277509460519 14.139881217578933 14.018482408397938 -41.385982959889375 -13.963264481708851 36.523330252699886 0.0 0.0 0.0
